<svg width="19" height="15" viewBox="0 0 19 15" fill="none" xmlns="http://www.w3.org/2000/svg">
<path d="M8.57342 5.23355C9.0101 6.15651 9.51003 7.23394 9.99466 8.30987C10.432 9.27416 10.8502 10.271 11.2095 11.0699C11.2105 11.0719 11.2114 11.0738 11.2124 11.0758C11.2266 11.1056 11.2394 11.1316 11.2493 11.151C11.2539 11.1601 11.2586 11.1689 11.2587 11.1696C11.2574 11.1683 11.2606 11.1714 11.2417 11.1459C11.235 11.1373 11.2265 11.1258 11.206 11.1047C11.1881 11.0974 11.1809 11.0387 10.9771 10.9761C10.8775 10.941 10.6368 10.9803 10.5291 11.1103C10.4188 11.2329 10.4118 11.3261 10.4028 11.3774C10.3937 11.4835 10.4057 11.4966 10.4051 11.5065C10.407 11.5182 10.4088 11.5268 10.4104 11.5338C10.4135 11.5474 10.4162 11.5563 10.4175 11.5603C10.4308 11.5948 10.4052 11.5256 10.3983 11.5082C10.3786 11.4565 10.3693 11.4282 10.3627 11.4049C10.3487 11.3577 10.3455 11.3306 10.2563 11.1469C10.1005 10.828 9.93714 10.5202 9.7719 10.2138C9.56475 9.83027 9.35528 9.4515 9.14359 9.05541C9.01747 8.81949 9.21565 9.08996 9.08275 8.84361C8.35171 7.49315 7.62475 6.23303 6.84767 4.88702C6.77139 4.75521 6.69197 4.61874 6.61529 4.48783C6.17709 3.76 5.7557 2.97825 5.23644 2.40735C5.22712 2.39324 5.18266 2.36545 5.25054 2.40919C5.2658 2.41717 5.28787 2.42867 5.32869 2.43819C5.33823 2.44989 5.55388 2.46091 5.65171 2.33259C5.78457 2.13668 5.7216 2.10999 5.73245 2.08862C5.72819 2.0585 5.72747 2.06444 5.72913 2.06838C5.7375 2.09588 5.76175 2.15346 5.78565 2.2056C5.83422 2.31174 5.89095 2.42441 5.94694 2.53326C6.06182 2.75594 6.18233 2.9783 6.30406 3.19993C6.54641 3.6405 6.79778 4.08381 7.04961 4.52373C7.5533 5.40284 8.06747 6.28185 8.58281 7.15669C8.92448 7.73653 9.25195 8.32897 9.55595 8.93173C9.70791 9.23285 9.85457 9.53839 9.99501 9.84505C10.0655 9.99856 10.1343 10.1528 10.2022 10.303C10.2359 10.3773 10.2706 10.4534 10.3039 10.521C10.3205 10.5549 10.3375 10.5874 10.3513 10.6108C10.3465 10.6287 10.4386 10.664 10.2668 10.5693C10.1998 10.5173 9.94202 10.6066 9.91956 10.7016C9.87396 10.7941 9.88811 10.7989 9.88351 10.8171C9.88253 10.8461 9.8841 10.8398 9.88347 10.8385C9.88281 10.8321 9.87847 10.8103 9.87419 10.7929C9.86402 10.751 9.85076 10.7058 9.83665 10.6603C9.8079 10.5679 9.7734 10.4683 9.73958 10.3739C9.66943 10.1787 9.59585 9.98722 9.51939 9.79263C9.36613 9.40341 9.20721 9.01826 9.0441 8.62995C8.71888 7.85675 8.38198 7.08487 8.03868 6.31266C7.45038 4.9654 6.42094 3.86044 5.30612 2.82171C5.28348 2.80029 5.26166 2.7803 5.24384 2.76529C5.23485 2.75764 5.22657 2.75145 5.22685 2.75168C5.22791 2.7521 5.22902 2.75406 5.24824 2.76298C5.25511 2.76583 5.27746 2.77652 5.31619 2.78158C5.35559 2.79124 5.49738 2.77734 5.57008 2.66935C5.65668 2.50741 5.61004 2.50442 5.61715 2.48333C5.61499 2.47058 5.61381 2.46807 5.61381 2.46788C5.61377 2.46803 5.61644 2.47595 5.62046 2.48576C5.62765 2.5036 5.63942 2.52935 5.65066 2.5527C5.67425 2.60171 5.70192 2.65505 5.72967 2.70736C5.78578 2.81294 5.84543 2.92046 5.90638 3.02926C6.02861 3.24711 6.15479 3.46727 6.28453 3.69311C7.2461 5.36641 8.29781 7.19965 9.26144 8.87325C9.40456 9.12249 9.54307 9.36447 9.68019 9.60532C9.83336 9.87481 9.77532 9.69578 9.80665 9.74555C9.97648 10.017 10.0604 10.1671 10.1106 10.2679C10.1354 10.318 10.1518 10.3559 10.1647 10.3882C10.1711 10.4044 10.1769 10.4193 10.1808 10.4306C10.1671 10.4322 10.2458 10.4812 10.097 10.3782C10.1261 10.3979 10.1566 10.4166 10.1871 10.431C10.2158 10.4566 10.2869 10.4239 10.1697 10.4744C10.0741 10.5763 10.1347 10.5543 10.1167 10.4963C10.1106 10.4442 10.0929 10.3748 10.07 10.3042C10.0237 10.1625 9.96301 10.0211 9.8943 9.87401C9.75838 9.58485 9.59804 9.29272 9.43124 9.00539C9.26373 8.71744 9.08665 8.43083 8.90483 8.14906C8.81314 8.00708 8.71987 7.86584 8.62688 7.72896C8.57826 7.65744 8.52999 7.58754 8.48482 7.52371C8.45695 7.48445 8.4398 7.46043 8.41173 7.42246C8.39874 7.40501 8.39169 7.39548 8.37737 7.37723C8.37169 7.37003 8.36747 7.36493 8.36565 7.36281C8.36529 7.36148 8.36079 7.36061 8.38799 7.38226C8.39607 7.38801 8.40638 7.39613 8.43138 7.40723C8.44205 7.40998 8.46203 7.42677 8.53409 7.42479C8.6047 7.42806 8.70921 7.34804 8.72567 7.2863C8.76318 7.08244 8.71892 7.14124 8.72545 7.12038C8.73843 7.1582 8.76527 7.19224 8.74095 7.30113C8.72503 7.36273 8.67173 7.42186 8.62495 7.44532C8.5884 7.46471 8.56435 7.46957 8.54094 7.47365C8.44549 7.48252 8.44177 7.47178 8.40354 7.46613C8.35405 7.45493 8.31291 7.44064 8.27359 7.42634C8.19866 7.39864 8.13012 7.36881 8.06105 7.33769C7.92514 7.27607 7.79771 7.21305 7.66944 7.14831C7.41308 7.01851 7.16331 6.88548 6.91761 6.7531C6.42544 6.48743 5.94845 6.22266 5.48734 5.96613C4.63138 5.48824 5.45061 6.0375 4.61308 5.51375C4.5551 5.47749 4.78995 5.56636 4.55929 5.43002C4.2741 5.26148 3.84652 5.01647 3.45038 4.78976C3.27617 4.68629 3.13114 4.6149 2.95536 4.46441C2.94106 4.45025 2.93075 4.44099 2.90945 4.41262C2.90656 4.38409 2.81683 4.36961 2.88429 4.15714C2.99537 4.00114 3.05277 4.04299 3.08409 4.02892C3.10858 4.02658 3.13405 4.02764 3.14704 4.02856C3.21109 4.03381 3.24674 4.04256 3.2882 4.05145C3.36561 4.06915 3.4256 4.08657 3.48096 4.10292C4.0036 4.2665 4.25026 4.36588 4.54296 4.47151C4.74744 4.54698 4.96693 4.62832 5.30197 4.75455C6.40297 5.17031 7.69985 5.69434 8.87384 6.15888C9.12478 6.25844 8.80842 6.08654 9.20942 6.24239C9.4316 6.32921 9.85307 6.50102 10.2418 6.67277C10.4001 6.74284 10.555 6.81393 10.6894 6.88119C10.7576 6.91545 10.8182 6.94711 10.8792 6.98313C10.9093 7.00112 10.939 7.01922 10.9738 7.04578C10.9969 7.06726 11.0066 7.06035 11.0629 7.14233C11.071 7.1594 11.1006 7.19674 11.0991 7.28618C11.0966 7.37806 11.0333 7.45361 10.9919 7.47977C10.8938 7.53672 10.8907 7.51919 10.8631 7.52649C10.5259 7.50196 10.5605 7.46204 10.5271 7.45207C10.5132 7.43834 10.5406 7.43525 10.5058 7.42274C10.2121 7.31442 9.71216 7.16623 9.28234 7.04018C8.92159 6.93465 8.6108 6.84614 8.53856 6.82225C6.83519 6.25011 5.29609 5.67846 3.7762 5.06913C3.56207 4.98176 3.35473 4.89556 3.14213 4.80017C3.11332 4.7869 3.09647 4.78013 3.05115 4.75718C3.04883 4.75593 3.04625 4.75453 3.04235 4.75226C3.04136 4.75168 3.04029 4.75105 3.03907 4.75031C3.03832 4.74915 3.04132 4.75416 3.00959 4.72911C3.00083 4.72072 2.98866 4.71358 2.96476 4.67663C2.94142 4.65907 2.89616 4.48309 3.00992 4.39653C3.18862 4.29715 3.16942 4.35924 3.193 4.34894C3.24608 4.36253 3.21307 4.3543 3.22267 4.35687C3.22881 4.35897 3.23227 4.36032 3.23588 4.36172C3.24405 4.36494 3.24645 4.36599 3.25032 4.36759C3.25737 4.37055 3.26757 4.37494 3.27278 4.37723C3.28589 4.38295 3.30119 4.38975 3.31345 4.39527C3.36639 4.41909 3.42092 4.4444 3.47104 4.46793C3.57521 4.51685 3.67765 4.56617 3.7811 4.6166C4.19443 4.81844 4.59791 5.02503 5.01028 5.24016C5.25337 5.36709 5.49634 5.49556 5.74146 5.62566C7.6846 6.65984 9.74622 7.78503 11.5782 8.79188C11.8689 8.95175 12.1537 9.10851 12.4332 9.26194C12.8451 9.48786 13.2452 9.70694 13.6409 9.91796C13.8405 10.0242 14.0371 10.1277 14.2337 10.2255C14.3322 10.2743 14.4294 10.3213 14.526 10.3631C14.5733 10.3835 14.6209 10.4027 14.6628 10.4162C14.6918 10.4402 14.7811 10.3999 14.6385 10.4567C14.5772 10.5094 14.6097 10.5607 14.592 10.5102C14.5792 10.4745 14.549 10.4215 14.5172 10.374C14.4495 10.2732 14.3673 10.1737 14.2807 10.0745C14.1062 9.87573 13.9173 9.68385 13.7229 9.49107C13.3343 9.10711 12.9252 8.72493 12.5061 8.32827C12.3202 8.15213 12.5053 8.39325 12.2783 8.17793C12.2772 8.17688 12.2761 8.17584 12.275 8.1748C11.1612 7.10409 9.80113 6.34168 8.38638 5.69078C7.07378 5.09158 5.31472 4.48431 4.24247 4.54958C4.22929 4.57635 4.23058 4.53679 4.24032 4.57723C4.25353 4.6109 4.30338 4.67189 4.35694 4.72055C4.57987 4.90644 4.25297 4.70309 4.49155 4.89001C5.71749 5.70085 7.82015 6.42279 9.20116 7.01805C9.66154 7.21146 10.061 7.35458 10.3529 7.43078C11.4066 7.89305 12.6742 8.37694 13.7345 8.78541C13.8332 8.82428 13.9316 8.86391 14.0246 8.902C14.0714 8.92104 14.1205 8.94144 14.1591 8.95665C14.1612 8.95747 14.1626 8.95803 14.1628 8.95818C14.163 8.95829 14.1624 8.95807 14.1578 8.9569C14.1554 8.95632 14.1521 8.95547 14.1453 8.95427C14.1353 8.95345 14.159 8.95376 14.1112 8.95168C14.0935 8.95563 14.0604 8.94151 13.9861 9.00407C13.8998 9.08267 13.9397 9.21491 13.958 9.23179C13.9957 9.28549 14.0056 9.28096 14.007 9.28444C14.0323 9.30062 14.0166 9.29012 14.0157 9.28998C14.0058 9.28464 13.9976 9.28028 13.986 9.27436C13.9662 9.2641 13.9452 9.25338 13.9224 9.24188C13.2168 8.88413 13.9322 9.17312 13.0441 8.77203C12.8466 8.68208 13.0842 8.84002 12.7873 8.70113C12.6007 8.61367 12.4121 8.52402 12.22 8.43169C11.1339 7.90906 10.0023 7.33791 8.952 6.83286C8.70061 6.71199 8.75323 6.77784 8.67975 6.74824C8.06338 6.49796 7.11531 5.92641 6.90331 5.81272C5.92087 5.28715 5.09429 4.86496 4.25423 4.43896C3.7109 4.16383 3.15732 3.88153 2.57154 3.58295C2.56882 3.5816 2.56657 3.58073 2.5722 3.58311C2.57299 3.58343 2.57399 3.58384 2.57535 3.58436C2.57766 3.58518 2.57126 3.58303 2.58377 3.58734C2.59038 3.58896 2.59445 3.5924 2.62579 3.59545C2.64269 3.59388 2.66964 3.60651 2.73964 3.56385C2.82429 3.51569 2.8221 3.37249 2.80115 3.34899C2.70558 3.21505 2.74387 3.28662 2.73496 3.27017C2.73465 3.26997 2.73441 3.26982 2.73423 3.26971C2.73351 3.26925 2.73355 3.26929 2.73395 3.26951C2.73606 3.27075 2.74206 3.27413 2.74519 3.27584C2.75289 3.28009 2.76405 3.28613 2.77029 3.28939C2.78539 3.29736 2.80114 3.30542 2.81126 3.31024C2.83416 3.32132 2.85026 3.328 2.85798 3.32969C2.87514 3.33399 2.86987 3.32432 2.86445 3.31452C2.85443 3.2953 2.84004 3.27368 3.00682 3.36355C3.31545 3.52984 3.62209 3.69551 3.9356 3.86609C5.3769 4.65079 6.83746 5.46251 8.21978 6.25658C8.59273 6.4713 8.22707 6.31257 8.40518 6.41756C9.18695 6.87967 9.40068 6.91067 10.1464 7.36355C10.3045 7.46039 10.1964 7.4371 10.2235 7.45743C10.315 7.52638 10.4083 7.58918 10.4934 7.64292C10.6566 7.74626 10.8058 7.82472 10.9344 7.90428C10.9654 7.92545 10.9935 7.93633 11.0438 7.99242C11.0526 8.00366 11.0623 8.01703 11.0718 8.03913C11.0788 8.04251 11.108 8.16179 11.0387 8.22762C10.9319 8.31476 10.9071 8.27917 10.8892 8.28709C10.8465 8.28557 10.8387 8.28344 10.8175 8.28036C10.7527 8.26968 10.7168 8.26004 10.6886 8.2511C10.2351 8.0933 9.86411 7.92032 9.50389 7.76359C9.27782 7.65497 9.06504 7.6042 8.81949 7.39561C8.67491 7.27675 8.67169 7.02033 8.71844 6.90611C8.75932 6.77361 8.81352 6.66748 8.8681 6.55853C9.12471 6.06521 9.4153 5.58656 9.73911 5.02495C9.83836 4.85429 9.57326 5.21477 9.85532 4.73674C10.0212 4.45707 10.1903 4.17705 10.3626 3.89805C10.4418 3.7698 10.5212 3.6427 10.6021 3.51543C10.6427 3.45161 10.6831 3.38834 10.7258 3.32362C10.7367 3.30719 10.7462 3.29271 10.7601 3.27271C10.7624 3.26949 10.768 3.26144 10.7751 3.25249C10.7783 3.24868 10.7811 3.24484 10.7909 3.23488C10.7966 3.22964 10.8021 3.22296 10.8235 3.20907C10.837 3.20615 10.9159 3.13112 11.0473 3.23C11.1729 3.44012 11.0809 3.4051 11.0956 3.4296C11.0912 3.44152 11.089 3.44572 11.087 3.45002C11.0837 3.45668 11.0822 3.45933 11.0801 3.46328C11.0728 3.4766 11.0677 3.48517 11.0629 3.49336C11.0423 3.52805 11.0227 3.56 11.0028 3.59246C10.8428 3.85142 10.6824 4.10296 10.5182 4.36011C9.26254 6.31559 7.96538 8.2924 6.64381 10.1666C6.3553 10.5728 6.06321 10.9732 5.76494 11.363C5.41651 11.814 5.63573 11.4702 5.61124 11.496C5.20769 11.9219 5.02968 12.2639 4.90875 12.4075C4.79874 12.5377 4.68482 12.6647 4.56497 12.7843C4.53329 12.8154 4.50742 12.8426 4.46302 12.8797C4.45983 12.8822 4.4567 12.8848 4.44987 12.8896C4.43207 12.8931 4.47641 12.901 4.35803 12.9167C4.34639 12.9165 4.29553 12.9093 4.26214 12.8665C4.23041 12.8252 4.23219 12.7884 4.2334 12.7704C4.23987 12.729 4.24132 12.7379 4.24328 12.7302C4.24709 12.721 4.25009 12.7156 4.25277 12.7108C4.2582 12.7016 4.25912 12.7005 4.26216 12.6959C4.27232 12.6811 4.27963 12.672 4.28635 12.6634C4.30142 12.6443 4.31471 12.6284 4.32847 12.612C4.38379 12.5466 4.43843 12.4854 4.49345 12.4241C4.60311 12.3023 4.71386 12.1826 4.82122 12.0672C5.03779 11.8347 5.24716 11.6132 5.44796 11.397C5.80429 11.0135 6.12538 10.6551 6.37876 10.3246C7.64134 9.00045 8.90214 7.67878 10.145 6.34655C10.3791 6.09482 10.609 5.8461 10.8374 5.59302C10.9507 5.46719 11.0639 5.34016 11.1731 5.21238C11.2276 5.14839 11.2806 5.08495 11.3304 5.02081C11.3546 4.98943 11.3783 4.95762 11.3972 4.92851C11.4223 4.9156 11.4076 4.81947 11.4247 4.96944C11.2862 4.52519 10.7983 4.80716 10.4402 5.1153C10.0692 5.43333 9.73875 5.8125 9.42292 6.19859C9.10729 6.58692 8.80671 6.99201 8.51643 7.40102C8.36998 7.60752 8.22729 7.81377 8.08611 8.02121C8.01352 8.12789 7.94432 8.23046 7.87342 8.33569C7.83787 8.38845 7.80183 8.442 7.7671 8.49297C7.75388 8.51234 7.72672 8.55206 7.71223 8.57237C7.70394 8.58405 7.68825 8.60612 7.67667 8.62003C7.67191 8.62538 7.68358 8.61298 7.66197 8.63639C7.63666 8.63306 7.69115 8.70629 7.47485 8.66842C7.30475 8.499 7.41591 8.48885 7.39394 8.48228C7.39763 8.46931 7.40032 8.46314 7.40293 8.45671C7.40808 8.44452 7.41313 8.43416 7.41964 8.42114C8.21235 6.97198 9.17855 5.67393 10.1104 4.34572C10.1553 4.28241 10.1109 4.42068 10.2003 4.29433C10.5565 3.79162 10.7679 3.48014 10.9098 3.2545C11.0574 3.02056 11.1374 2.87498 11.2344 2.69947C11.2844 2.60989 11.3378 2.51349 11.409 2.39582C11.4478 2.33427 11.4806 2.27487 11.5484 2.19079C11.5627 2.17608 11.5618 2.17052 11.6044 2.14039C11.6145 2.13686 11.6255 2.1167 11.7009 2.11124C11.7827 2.09255 11.8912 2.23062 11.8781 2.26745C11.8831 2.3172 11.8748 2.33606 11.8739 2.34528C11.8629 2.39301 11.8557 2.41041 11.8463 2.43822C11.8286 2.48821 11.81 2.53475 11.7888 2.58574C11.7429 2.69731 11.6384 2.87904 11.5225 3.06596C11.3319 3.37369 11.1088 3.6971 11.0794 3.74103C10.9081 3.99659 11.008 3.68777 10.9538 3.77528C10.504 4.49579 10.7562 4.47904 10.1715 5.46741C10.1528 5.49804 10.1975 5.34921 10.1449 5.42989C9.98114 5.68066 9.83979 5.94135 9.67379 6.183C9.38699 6.59825 9.19475 6.78325 8.89538 7.22354C8.79639 7.36835 8.68518 7.54035 8.55219 7.75605C8.48247 7.86492 8.70018 7.77589 8.09127 8.60195C7.8546 8.93634 6.73847 10.3591 6.40007 10.7376C6.0691 11.1204 6.26348 10.8301 6.23937 10.8564C6.15174 10.9531 6.07479 11.0369 6.00812 11.1085C5.68991 11.4503 5.58147 11.5457 5.4985 11.6093C5.45707 11.6407 5.42057 11.6654 5.3659 11.7054C5.33758 11.7262 5.30654 11.7495 5.26411 11.7801C5.243 11.7946 5.21805 11.8142 5.19538 11.8202C5.21217 11.8349 5.22538 11.7791 5.24812 11.7554C5.66965 11.2215 5.43098 11.2888 5.57025 11.0464C5.59967 10.9972 5.64554 10.9288 5.70687 10.8422C5.94152 10.5099 6.35776 9.9805 6.48188 9.82802C6.63747 9.63677 6.47718 9.89984 6.61176 9.72717C7.50092 8.58836 6.91275 9.16296 7.1691 8.76182C7.77471 7.81546 8.39403 7.18627 9.00686 6.36254C9.17239 6.13997 9.01537 6.30626 9.15849 6.10391C9.6179 5.45421 9.95451 5.03126 10.3919 4.39828C10.4945 4.24963 10.5985 4.095 10.7129 3.91951C10.7634 3.84206 10.9015 3.60847 11.0699 3.33811C11.154 3.20305 11.2468 3.05721 11.3393 2.91617C11.3837 2.84847 11.4316 2.77645 11.4745 2.71194C11.495 2.68131 11.517 2.64814 11.5356 2.61869C11.5443 2.60502 11.5534 2.58946 11.5568 2.58445C11.5574 2.58468 11.5572 2.58244 11.5554 2.59743C11.5584 2.61222 11.5417 2.59293 11.5708 2.66522C11.6253 2.74571 11.7003 2.71618 11.7002 2.71676C11.7437 2.69752 11.7195 2.70485 11.7193 2.70657C11.666 2.75287 11.7926 2.55464 11.5174 2.85934C11.4438 2.94416 11.3608 3.04424 11.2718 3.15415C10.876 3.64376 10.3617 4.32441 10.041 4.76848C9.75166 5.16998 10.1334 4.74658 9.74835 5.23655C9.57751 5.45443 9.85781 5.024 9.53918 5.43484C9.22171 5.84313 8.44048 6.91079 8.14659 7.3192C7.85241 7.727 8.04695 7.52765 8.02517 7.56229C7.96791 7.65311 7.83029 7.85646 7.69076 8.06194C7.5096 8.32827 7.32929 8.59381 7.30047 8.6347C6.98225 9.09057 6.65564 9.54461 6.38176 10.0043C6.37624 10.0139 6.37091 10.0231 6.3678 10.0288C6.36723 10.0299 6.36673 10.0311 6.36831 10.0276C6.36853 10.0112 6.37573 10.0633 6.37458 9.9555C6.37237 9.92945 6.33423 9.87188 6.285 9.86251C6.23507 9.8529 6.22679 9.86316 6.21982 9.86342C6.20479 9.86793 6.19741 9.87233 6.19182 9.87552C6.18137 9.88185 6.17764 9.88553 6.17615 9.88671C6.16857 9.89365 6.17398 9.88876 6.17621 9.8861C6.1879 9.87316 6.20127 9.8573 6.21515 9.84085C6.24197 9.80899 6.27069 9.77437 6.29716 9.74251C6.35265 9.67566 6.40745 9.60956 6.46215 9.54379C6.57084 9.41305 6.6825 9.27932 6.79158 9.14926C7.01181 8.88664 7.22999 8.62852 7.45163 8.36751C9.11886 6.40489 10.7729 4.51076 12.3958 2.51271C12.6185 2.23513 12.839 1.95904 13.0463 1.67305C13.2291 1.40945 13.0705 1.56101 13.0981 1.52048C13.1158 1.49297 13.1327 1.46509 13.142 1.44679C13.15 1.45289 13.1394 1.37617 13.1478 1.50675C13.1588 1.57458 13.2793 1.60441 13.2915 1.58995C13.3059 1.58656 13.3094 1.58424 13.3122 1.58303C13.3163 1.58093 13.3132 1.58256 13.3105 1.58452C13.28 1.60637 13.2437 1.63932 13.2132 1.66658C13.152 1.72174 13.109 1.76056 13.0746 1.78866C13.0088 1.84238 12.9838 1.84881 12.9677 1.84308C12.9346 1.83369 12.9227 1.78714 12.6396 2.05966C12.718 2.04659 12.651 2.14088 12.4864 2.32964C12.3555 2.47982 12.1614 2.69221 11.9297 2.95717C11.6789 3.24447 11.8425 3.11199 11.8218 3.14021C11.4835 3.59605 11.1745 3.84819 11.0969 3.9157C10.8123 4.1638 10.5873 4.50945 10.3946 4.67951C10.202 4.84982 10.5515 4.37597 10.0521 4.94837C9.93535 5.12931 10.3674 4.75761 9.99797 5.20081C9.63089 5.64131 9.1714 6.17804 8.6736 6.74911C7.50255 8.16009 5.75638 9.48669 4.49137 10.0659C4.28177 10.1714 4.07986 10.241 3.90048 10.2905C2.75096 10.564 2.08195 10.4107 1.503 10.2671C1.21903 10.1842 1.04303 9.94257 0.933426 9.68465C0.886403 9.53178 1.01065 9.48651 1.05363 9.45097C2.78001 8.73721 2.13697 8.98366 3.21108 8.58534C3.48635 8.49052 3.65846 8.44151 3.7712 8.4177C4.08873 8.35242 3.85102 8.51884 3.97498 8.50521C4.14037 8.48724 4.30052 8.40369 4.49466 8.36256C4.69181 8.32059 4.28266 8.46813 4.73559 8.33675C5.18776 8.20504 6.40619 7.7811 6.55666 7.70197C6.87363 7.53423 6.29833 7.6276 7.49968 7.29832C7.56905 7.27939 7.35632 7.38295 7.62154 7.30852C9.72102 6.71821 11.8958 6.0864 13.9931 5.49639C14.2818 5.41515 14.0367 5.53255 14.2053 5.48556C14.363 5.44169 14.5089 5.4003 14.6281 5.36596C15.8503 5.01205 15.3957 5.07808 16.2383 4.74613C16.154 4.82504 16.2281 4.84619 16.4716 4.80272C16.5932 4.78094 16.7582 4.74267 16.9614 4.68775C17.0656 4.65945 17.1787 4.62719 17.3015 4.58966C17.3647 4.57027 17.4278 4.55041 17.4953 4.52785C17.5285 4.51676 17.5635 4.50471 17.5978 4.49207C17.6167 4.48509 17.6339 4.47855 17.6522 4.47095C17.6619 4.46689 17.6714 4.46276 17.6814 4.45789C17.6872 4.45497 17.6918 4.4527 17.6998 4.4478C17.6931 4.42666 17.7621 4.49506 17.7154 4.32956C17.563 4.2933 17.5993 4.33366 17.5463 4.33786C17.5105 4.34883 17.4727 4.36138 17.4375 4.3734C16.6552 4.6543 16.8095 4.65434 16.32 4.87602C16.1725 4.94331 15.6157 5.1254 15.5259 5.18454C15.2933 5.33581 15.5669 5.29408 15.0839 5.49447C14.9467 5.55156 14.7361 5.63287 14.4363 5.74351C14.3772 5.76522 14.549 5.65468 14.3458 5.73242C13.046 6.23041 12.9198 6.36235 11.5265 6.929C10.434 7.37342 8.47235 8.11291 7.22494 8.61292C7.20817 8.4968 6.18044 8.93416 5.68952 9.21436C5.65603 9.2333 5.62526 9.25138 5.59754 9.26844C4.79227 9.5967 3.92789 9.96493 3.14748 10.286C2.87993 10.3959 3.04104 10.289 3.00586 10.2998C2.53227 10.4437 2.23787 10.6365 2.03226 10.7117C2.00205 10.7222 1.97486 10.7301 1.94463 10.7339C1.93386 10.735 1.92283 10.7362 1.90609 10.7348C1.89874 10.7339 1.88385 10.7332 1.86392 10.7216C1.82976 10.7079 1.81603 10.6405 1.82977 10.6211C1.86191 10.5627 1.87171 10.5706 1.88828 10.5546C1.91765 10.533 1.94762 10.5153 1.97465 10.4997C2.03062 10.4676 2.08927 10.4378 2.14353 10.4111C2.25647 10.3558 2.36825 10.3056 2.4794 10.2572C2.70499 10.1593 2.92222 10.0718 3.14168 9.98603C3.57905 9.8155 4.00518 9.66053 4.43439 9.50672C5.3007 9.19724 6.16408 8.89668 7.07987 8.54048C7.14371 8.51555 7.22166 8.39897 7.73206 8.28296C7.76505 8.27568 7.17251 8.52718 8.03572 8.22316C8.89759 7.91762 10.5418 7.38003 11.6947 6.85054C11.9142 6.74221 12.4497 6.49255 12.8503 6.21542C12.8954 6.18624 12.9101 6.13241 12.908 6.17843C12.9364 6.21938 12.8981 6.16747 12.8524 6.15658C12.7848 6.13351 12.8674 6.12465 12.7611 6.09277C12.3855 6.0101 12.172 6.11291 11.7147 6.06771C11.2553 6.02552 10.2991 6.06901 9.03709 6.30719C8.99685 6.31465 8.70652 6.42547 8.30848 6.4875C7.99863 6.5357 7.6252 6.59322 7.24838 6.65474C6.84976 6.71972 6.44854 6.78929 6.11085 6.85461C5.7944 6.91627 6.00523 6.91806 5.95053 6.92947C4.91655 7.16175 3.97276 7.30042 3.16316 7.69037C3.05838 7.74145 3.23579 7.76091 3.34088 7.7716C3.45604 7.78119 3.58249 7.78168 3.69979 7.77998C3.94359 7.77584 4.1907 7.7608 4.44359 7.74174C4.94881 7.70299 5.48454 7.64571 6.06414 7.57307C6.48598 7.52247 7.68509 7.28882 8.50148 7.1911C8.90371 7.14371 8.95058 7.18854 9.06071 7.21744C9.13259 7.23221 9.22398 7.25208 9.45831 7.19679C9.57021 7.16132 9.75529 7.12657 9.91777 6.89777C10.0714 6.65604 10.0374 6.36875 9.98815 6.08151C9.95034 5.87468 9.88633 5.66978 9.81338 5.44833C9.58175 4.75397 9.26045 3.92045 9.06969 2.78878C8.91744 2.24724 8.77319 1.71167 8.57973 1.19543C8.53243 1.08249 8.49723 0.970163 8.4054 0.868742C8.38623 0.844749 8.32101 0.820422 8.28655 0.855572C8.25496 0.883272 8.24327 0.91388 8.23091 0.943297C8.20815 1.00235 8.19511 1.06224 8.18358 1.1205C8.13979 1.35755 8.12152 1.59476 8.10301 1.83006C8.06823 2.30435 8.0473 2.77241 8.02693 3.24576C7.97183 4.56849 7.9356 5.90007 7.94169 7.28004C7.94219 7.4117 8.01087 7.82837 8.00851 8.13729C8.00481 8.59647 7.97118 8.84793 7.97043 9.17616C7.96898 9.94039 7.98727 10.6733 8.02677 11.3945C8.06165 11.9692 8.09696 12.5444 8.20533 13.1162C8.25825 13.3593 8.27953 13.4384 8.33088 13.5164C8.40554 13.6242 8.5338 13.4651 8.61324 13.1935C8.67667 12.9874 8.71015 12.8021 8.74145 12.6136C8.79556 12.2762 8.83729 11.9249 8.92276 11.4082C9.02201 10.8028 9.18798 10.2033 9.28469 9.39405C9.19462 9.35381 9.25716 8.79733 9.32506 7.80528C9.33799 7.61466 9.28664 7.81557 9.29107 7.72525C9.30834 7.35759 9.36551 7.02089 9.37756 6.67132C9.38052 6.5864 9.34902 6.58014 9.34965 6.51004C9.35396 5.91896 9.50269 4.95364 9.52753 4.78834C9.544 4.68103 9.55737 4.57838 9.56781 4.48876C9.61907 4.04212 9.61279 3.77018 9.65578 3.36309C9.70671 2.8743 9.68198 3.61069 9.73057 3.03743C9.78211 2.3604 9.85014 1.57404 9.81985 0.791145C9.81765 0.7573 9.81513 0.724239 9.81096 0.690155C9.80877 0.67291 9.80652 0.656553 9.80215 0.637119C9.7858 0.629359 9.83446 0.562737 9.7076 0.578101C9.63884 0.671677 9.64949 0.718603 9.62793 0.78705C9.59802 0.915363 9.57425 1.04193 9.5509 1.16871C9.50495 1.42101 9.46493 1.6643 9.42629 1.90168C9.41831 1.95077 9.40992 2.00275 9.40198 2.05212C9.32644 2.52712 9.41981 2.20962 9.40998 2.27769C9.26627 3.26255 9.07975 4.25268 9.08856 4.81101C8.77905 5.46511 9.02332 5.4079 8.80615 6.81323C8.78944 6.92417 8.66911 7.05342 8.70555 6.62406C8.74223 6.19475 8.85778 5.55141 8.91542 4.95647C8.92844 4.81556 8.94509 3.99946 8.95562 3.88905C9.03458 3.02396 9.20814 2.92766 9.22317 2.88234C9.30903 2.62776 9.36359 2.2461 9.40333 1.89797C9.44139 1.56219 9.46673 1.25778 9.48706 1.12956C9.50733 1.00071 9.52816 0.874718 9.55627 0.746999C9.56359 0.7145 9.57109 0.682915 9.58122 0.648321C9.58618 0.631719 9.59143 0.614392 9.60075 0.591838C9.60501 0.581863 9.61096 0.567914 9.6223 0.550735C9.63258 0.537683 9.63243 0.530625 9.66801 0.50559C9.69169 0.475498 9.81342 0.487501 9.82993 0.519447C9.92292 0.655853 9.87943 0.641832 9.89524 0.687705C9.89962 0.721587 9.90246 0.75315 9.905 0.785544C9.9476 1.68394 9.86816 2.46558 9.84143 3.24889C9.81289 3.90291 9.90905 3.97013 9.86781 4.4834C9.86706 4.49269 9.8663 4.50198 9.86553 4.51125C9.72419 6.18738 9.53466 6.77039 9.50551 8.37196C9.49718 8.71727 9.64541 8.38765 9.42988 9.60797C9.41669 9.68469 9.23743 10.5875 9.21811 11.1204C9.21585 11.1875 9.24827 11.1894 9.23955 11.2764C9.18522 11.7944 9.11768 12.1524 9.02263 12.669C9.008 12.7458 8.99443 12.8161 8.97735 12.8995C8.94308 13.0629 8.90651 13.2335 8.839 13.4242C8.78535 13.5258 8.82186 13.6089 8.57319 13.805C8.49442 13.8632 8.30074 13.8742 8.20865 13.8132C8.10684 13.7551 8.07855 13.7051 8.04996 13.6677C7.99508 13.5851 7.97646 13.5323 7.95437 13.475C7.81555 13.0501 7.79103 12.6903 7.75723 12.3125C7.73486 12.0201 7.74118 11.6704 7.75152 11.4074C7.75696 11.2712 7.76284 11.1528 7.76524 11.0808C7.78518 10.482 7.70715 9.84378 7.75554 9.47354C7.80491 9.10199 7.8868 9.82742 7.91619 8.85295C7.83206 8.81714 7.7457 8.73394 7.66117 8.67566C7.66555 6.85127 7.72449 5.05517 7.794 3.23706C7.80646 2.9212 7.8193 2.60578 7.83514 2.28852C7.84904 2.0219 7.78856 2.29179 7.80349 2.00558C7.82031 1.7182 7.83795 1.44929 7.8834 1.15776C7.89519 1.08679 7.90905 1.00995 7.93366 0.924148C7.9465 0.882035 7.95946 0.835993 7.99564 0.767516C8.01631 0.733078 8.03213 0.695548 8.10539 0.63251C8.16031 0.573947 8.34887 0.520751 8.45566 0.569824C8.64472 0.65532 8.64286 0.712772 8.68488 0.759855C8.71555 0.80603 8.73555 0.844464 8.75438 0.882471C8.79159 0.958896 8.81688 1.02245 8.84372 1.09272C9.0608 1.69462 9.20555 2.28088 9.38369 2.92706C9.59654 3.71416 9.83548 4.55995 10.0401 5.39825C10.0786 5.55739 10.1167 5.71801 10.1498 5.88311C10.1465 6.07559 10.2202 6.30768 10.1293 6.73428C10.083 6.95984 9.84707 7.19539 9.65206 7.26718C9.45419 7.353 9.27731 7.38591 9.0976 7.41953C8.58596 7.51094 8.04447 7.60539 7.57811 7.67465C7.19983 7.73044 7.22093 7.70084 6.95114 7.73251C5.93233 7.84738 6.41833 7.86244 6.14181 7.91431C4.94394 8.11187 4.84316 7.98706 3.37873 8.01916C3.3645 8.01819 3.30516 8.02109 3.21854 8.01631C3.17041 8.01132 3.1228 8.0138 3.02868 7.97661C2.9992 7.96288 2.96844 7.94754 2.93006 7.90872C2.88014 7.86474 2.84123 7.74819 2.85742 7.67897C2.89858 7.51869 2.94106 7.51492 2.98051 7.46906C3.32169 7.2096 3.61677 7.12946 3.69737 7.09052C4.48004 6.82674 3.83895 7.08357 4.3354 6.96151C5.24261 6.75475 5.87143 6.65735 6.93077 6.43634C7.00139 6.4218 7.09093 6.40115 7.20028 6.37645C7.56465 6.29343 8.11342 6.17282 8.58601 6.13904C8.6665 6.13322 8.62769 6.17347 8.69199 6.16565C9.85604 6.02571 9.87221 5.92102 10.5363 5.80305C11.1981 5.68218 12.2583 5.68287 12.4864 5.72366C13.0789 5.80256 12.0373 5.73486 12.018 5.75971C11.8372 5.8011 11.9462 5.80673 12.1653 5.80545C12.2782 5.80532 12.4134 5.80376 12.5722 5.81147C12.7399 5.83572 12.858 5.78155 13.132 5.96198C13.1361 5.98127 13.2263 6.10825 13.1772 6.2295C13.1345 6.33345 13.0766 6.36668 13.0179 6.41266C12.7853 6.5654 12.5046 6.71351 12.7155 6.67955C12.7421 6.6702 12.9039 6.59062 13.0597 6.46196C13.1128 6.41441 13.1646 6.36931 13.2039 6.2747C13.2646 6.15258 13.1714 5.98414 13.132 5.96198C13.2233 6.0054 13.2643 6.24191 13.2087 6.31633C13.1659 6.40691 13.1312 6.44216 13.0845 6.49115C12.6195 6.91772 11.9055 7.18004 11.0871 7.42399C10.6431 7.54752 11.03 7.3504 9.7355 7.85483C9.14729 8.08057 9.40003 8.06445 8.8843 8.27241C7.70448 8.74728 6.1244 9.22507 4.89752 9.67579C4.45338 9.83974 4.89961 9.72072 4.59822 9.83384C4.58492 9.83886 4.5717 9.84383 4.55857 9.84877C3.77219 10.1475 3.05379 10.3757 2.31136 10.7305C2.24629 10.7639 2.41989 10.7231 2.2027 10.8327C2.16649 10.8511 2.11448 10.8843 2.12632 10.8765C2.13138 10.8718 2.1346 10.8711 2.15543 10.8468C2.16767 10.8302 2.17858 10.8223 2.20248 10.7661C2.2325 10.7105 2.24202 10.5293 2.13079 10.4266C1.95051 10.2911 1.95086 10.35 1.92735 10.336C1.90837 10.3358 1.90654 10.3366 1.90281 10.3368C1.89548 10.3379 1.91405 10.3347 1.92972 10.3302C3.10176 9.87461 4.3112 9.33875 5.53906 8.84925C6.04096 8.64557 6.56049 8.43555 7.10189 8.2155C8.05463 7.82774 9.75212 7.11886 10.743 6.72697C12.0591 6.20579 13.6198 5.62282 14.9352 5.11625C15.3393 4.96063 15.7175 4.81348 16.0588 4.67771C17.0172 4.29899 16.7922 4.34204 17.2022 4.16157C17.2551 4.13877 17.3119 4.11554 17.3733 4.09235C17.406 4.08016 17.4354 4.06934 17.4727 4.05705C17.4911 4.05101 17.5106 4.04483 17.534 4.03844C17.5476 4.0348 17.5602 4.03145 17.5811 4.02732C17.5916 4.02533 17.6047 4.02276 17.6279 4.02055C17.643 4.01943 17.652 4.01815 17.6836 4.01933C17.7173 4.02865 17.7564 3.9986 17.9068 4.10805C17.9859 4.15138 18.0595 4.37845 18.0254 4.4537C18.0071 4.54636 17.9571 4.60441 17.9468 4.61697C17.9169 4.65255 17.8898 4.67202 17.8803 4.67921C17.8581 4.69547 17.8417 4.70451 17.8335 4.70918C17.812 4.72105 17.8029 4.72519 17.7901 4.73127C17.7697 4.74072 17.7533 4.74762 17.7364 4.75454C17.7063 4.76685 17.6753 4.77853 17.6487 4.78831C17.5926 4.80884 17.5358 4.82819 17.4809 4.84631C17.3686 4.88329 17.2579 4.91716 17.1448 4.9505C16.9219 5.01602 16.6976 5.07657 16.4951 5.12896C16.0868 5.23464 15.7656 5.30773 15.6772 5.32749C15.6727 5.32881 16.5161 5.06344 16.0581 5.18001C15.7826 5.21722 15.6879 5.32406 15.6772 5.32749C15.6145 5.34136 15.1748 5.46822 14.6992 5.60625C14.2108 5.74806 13.6851 5.90211 13.5128 5.95698C13.3327 6.0144 13.4452 6.02204 13.3502 6.0515C11.0907 6.75165 8.82006 7.42386 6.5178 8.09124C6.4772 8.10254 6.52543 8.04256 6.43026 8.0696C5.41006 8.35893 4.68005 8.6085 3.91401 8.8761C3.67519 8.95955 3.43666 9.04371 3.18433 9.13249C2.75689 9.28307 2.36171 9.4201 2.01009 9.54407C1.83553 9.60578 1.66682 9.66596 1.52005 9.72279C1.44728 9.751 1.37597 9.78034 1.32332 9.80534C1.29868 9.81649 1.2755 9.83062 1.27934 9.82518C1.28186 9.81993 1.29454 9.81484 1.3238 9.75966C1.36051 9.70971 1.35735 9.54841 1.32909 9.51283C1.36849 9.62916 1.41596 9.72462 1.46504 9.79371C1.51226 9.83832 1.56 9.86725 1.61268 9.88231C2.3413 10.1008 3.35034 10.0877 3.89796 9.91582C4.0961 9.86002 4.23 9.79347 4.3224 9.73669C4.54479 9.60088 4.57642 9.53607 4.61315 9.51523C6.21118 8.5674 7.04481 7.86153 8.32401 6.4438C8.35632 6.40717 8.39017 6.36872 8.42458 6.32957C9.06053 5.60592 10.3087 4.15126 10.996 3.36131C11.4587 2.8289 11.779 2.48944 12.1798 2.04733C12.2513 1.96871 12.3222 1.89063 12.3998 1.8052C12.4693 1.72883 12.3704 1.7787 12.3909 1.7548C12.9601 1.097 12.7428 1.46203 12.8832 1.34429C12.9505 1.29505 12.9565 1.27456 13.1149 1.18512C13.1362 1.17592 13.1492 1.16735 13.2046 1.15553C13.2451 1.14877 13.3156 1.1386 13.4088 1.18351C13.5061 1.23035 13.5613 1.32906 13.5743 1.39209C13.596 1.52986 13.5723 1.53109 13.5702 1.5575C13.5642 1.57861 13.5572 1.59547 13.5523 1.60654C13.5365 1.64053 13.5218 1.66301 13.511 1.67943C13.4867 1.71589 13.4657 1.74294 13.4466 1.76721C13.3653 1.87009 13.2882 1.95898 13.2088 2.05306C13.0497 2.24075 12.8801 2.44525 12.6581 2.72476C12.5607 2.84736 12.4486 2.98996 12.3264 3.14721C12.1714 3.34718 11.8089 3.99422 11.5201 4.35206C11.1465 4.81493 11.2539 4.61208 10.8623 5.09744C10.8286 5.13907 10.8587 5.14918 10.6103 5.44294C9.72717 6.48782 8.77315 7.5971 7.84415 8.697C7.56059 9.0331 7.27974 9.3687 7.00522 9.70141C6.84447 9.89629 7.08722 9.6758 6.85596 9.9578C6.80894 10.0152 6.76202 10.0725 6.71443 10.1305C6.69 10.1602 6.66635 10.1891 6.63992 10.2206C6.62579 10.2371 6.61794 10.2479 6.58459 10.2837C6.58057 10.2878 6.57028 10.2988 6.55353 10.3137C6.54484 10.3164 6.5434 10.3413 6.41419 10.3988C6.39562 10.4059 6.37294 10.4134 6.34316 10.4195C6.324 10.425 6.15957 10.4533 6.01665 10.3602C5.71483 10.1192 5.82633 9.9295 5.81411 9.90519C5.82095 9.86721 5.82779 9.84805 5.83295 9.83268C5.86631 9.74859 5.86186 9.76888 5.86879 9.75336C5.87788 9.73678 5.88232 9.72923 5.88753 9.72008C6.31212 9.01224 6.77455 8.38703 7.23831 7.7374C7.73271 7.05326 8.23177 6.37985 8.70832 5.74939C8.95731 5.4206 8.83036 5.6482 8.89126 5.58191C9.26426 5.17443 9.6613 4.4984 9.73739 4.39441C10.1301 3.85499 10.5105 3.34345 10.8944 2.85576C10.9735 2.75575 11.052 2.65785 11.1343 2.55935C11.1761 2.50943 11.2173 2.46092 11.2661 2.40722C11.2895 2.38194 11.3127 2.35548 11.3587 2.31326C11.368 2.30498 11.3897 2.2855 11.4179 2.26587C11.4261 2.26191 11.4635 2.2275 11.5572 2.20015C11.5833 2.19337 11.6099 2.18708 11.657 2.18528C11.7337 2.18045 11.8689 2.21048 11.9612 2.30196C12.0542 2.39129 12.0802 2.49421 12.0878 2.54937C12.0917 2.57796 12.0922 2.60115 12.0918 2.62071C12.0776 2.77043 12.063 2.75672 12.0555 2.78709C12.0457 2.81111 12.0406 2.82142 12.0347 2.83371C11.879 3.12132 11.7553 3.28594 11.6163 3.49465C11.3412 3.89721 11.0656 4.28299 10.783 4.6759C10.0945 5.63108 9.38407 6.59919 8.60687 7.69597C8.5087 7.83483 7.81361 8.94621 7.40819 9.3719C7.38006 9.40185 6.97717 9.82036 6.72343 10.2671C6.70807 10.2945 6.95011 10.0283 6.58243 10.533C6.45551 10.7076 6.30569 10.9211 6.14598 11.1511C5.99112 11.375 5.82576 11.6124 5.67259 11.8464C5.64025 11.8935 5.58586 11.9919 5.60012 11.9586C5.60334 11.9487 5.60446 11.9495 5.61312 11.9136C5.61705 11.8949 5.62221 11.8696 5.6225 11.8269C5.62093 11.7985 5.62621 11.803 5.61027 11.7261C5.59526 11.6604 5.54773 11.5582 5.45352 11.488C5.22019 11.3471 5.16452 11.411 5.09988 11.4123C5.04382 11.426 5.01661 11.4421 5.00868 11.4457C4.98499 11.4581 4.97427 11.4659 4.96722 11.4709C4.94957 11.4845 4.95947 11.4781 4.9667 11.4715C4.98208 11.4584 5.00691 11.4347 5.02899 11.4131C5.12303 11.3205 5.22313 11.2154 5.31955 11.1167C5.39036 11.0439 5.50212 10.9373 5.64019 10.7951C5.8665 10.5622 6.16171 10.2362 6.44778 9.81976C6.48082 9.77735 7.13942 8.71244 7.47956 8.41387C7.53394 8.36483 7.58199 8.49302 8.09795 7.67787C8.19494 7.52152 7.98505 7.78116 8.24964 7.37607C8.33285 7.24767 8.42257 7.11186 8.51639 6.96937C8.87738 6.42195 9.29617 5.77547 9.6364 5.13337C9.71178 4.99248 9.99492 4.37268 10.3088 3.92531C10.3582 3.85488 10.3094 4.01378 10.4538 3.76473C10.6386 3.44509 10.8207 3.11696 10.9974 2.78649C11.0765 2.63847 11.1547 2.49058 11.2261 2.34705C11.2563 2.29147 11.3122 2.15234 11.2936 2.2115C11.2924 2.2169 11.2887 2.23357 11.2867 2.25662C11.2902 2.29398 11.2644 2.26777 11.312 2.43603C11.3355 2.50918 11.4257 2.6304 11.5461 2.67472C11.6557 2.71833 11.7488 2.70598 11.8024 2.69274C11.9201 2.65577 11.9037 2.64951 11.9281 2.63741C11.9874 2.59388 11.9697 2.60291 11.9753 2.59913C11.9753 2.59912 11.9656 2.61009 11.9551 2.62306C11.9363 2.64624 11.9109 2.67956 11.8889 2.7092C11.6989 2.96744 11.5075 3.25101 11.3166 3.52971C11.1161 3.82319 10.9121 4.11369 10.7073 4.4001C10.4191 4.80321 10.5159 4.56221 10.2104 4.9789C9.90434 5.39559 9.30614 6.24577 9.03175 6.70929C8.75784 7.17307 9.15349 6.73142 8.72293 7.40917C8.45471 7.83829 8.1825 8.27579 7.97088 8.69595C7.96776 8.70211 7.9667 8.70532 7.97203 8.6928C7.97483 8.68556 7.97936 8.67655 7.98836 8.64473C7.98727 8.64618 8.00069 8.61101 8.00378 8.54338C8.004 8.50678 8.00718 8.45429 7.9735 8.36226C7.94559 8.27402 7.82877 8.12873 7.67972 8.0891C7.37687 8.02949 7.32614 8.13965 7.28252 8.15325C7.24409 8.18119 7.23204 8.19509 7.22146 8.20545C7.18736 8.24263 7.20668 8.22189 7.20023 8.22909C7.18894 8.24341 7.20214 8.22614 7.20756 8.21803C7.21789 8.20328 7.24334 8.16575 7.25572 8.14723C7.28878 8.09798 7.32434 8.04447 7.35977 7.99126C7.43022 7.8854 7.4999 7.78102 7.57327 7.67232C7.71577 7.46116 7.86062 7.25076 8.00992 7.03988C8.30609 6.62188 8.61466 6.20745 8.94406 5.80522C9.27541 5.40429 9.61851 5.01021 10.0461 4.64708C10.2655 4.47009 10.4869 4.28646 10.8539 4.17145C11.0284 4.11861 11.3091 4.09482 11.55 4.22947C11.7947 4.36774 11.9019 4.55879 11.9783 4.73274C12.0703 5.01163 11.9738 5.09627 11.9631 5.14744C11.9386 5.199 11.919 5.22886 11.9014 5.25616C11.8656 5.31028 11.8354 5.34954 11.8052 5.38829C11.7444 5.46573 11.6872 5.53304 11.6287 5.60088C11.5124 5.73545 11.3962 5.86423 11.28 5.99172C11.0465 6.24768 10.814 6.49664 10.5776 6.74892C10.379 6.96069 10.1787 7.17333 9.97862 7.38558C9.61981 7.76586 9.94002 7.4729 9.41326 8.03332C8.45388 9.05443 7.1467 10.4409 5.87605 11.7969C5.65505 12.0334 5.44007 12.2643 5.22636 12.4966C5.11958 12.6128 5.01519 12.727 4.91378 12.8403C4.86371 12.8963 4.81218 12.9545 4.77032 13.0042C4.75987 13.0166 4.74963 13.0293 4.74665 13.0331C4.75328 13.016 4.72082 13.0951 4.79523 12.9391C4.79076 12.9304 4.83787 12.9016 4.81594 12.7025C4.80571 12.6054 4.70741 12.4339 4.56701 12.373C4.41621 12.3109 4.39952 12.3301 4.34205 12.3275C4.16934 12.3473 4.15373 12.3861 4.13866 12.3886C4.11534 12.4026 4.10679 12.4095 4.10036 12.4142C4.09247 12.4203 4.09057 12.4221 4.09042 12.4222C4.09602 12.4178 4.12721 12.3883 4.15025 12.3656C4.92807 11.5623 5.5705 10.6414 6.06277 9.99464C6.10349 9.94014 6.14178 9.88885 6.17755 9.84099C7.12948 8.55573 5.88685 10.4281 6.72546 9.24769C7.14347 8.65521 7.49098 7.94293 7.58507 7.79555C8.50298 6.35246 9.1918 5.37887 10.0107 4.07555C10.0172 4.0652 10.023 4.05571 10.0283 4.04699C10.1644 3.82327 9.9802 4.03844 10.1189 3.81712C10.2535 3.60135 10.3983 3.3748 10.5226 3.17096C10.5259 3.16551 10.5293 3.15952 10.5279 3.162C10.5273 3.1632 10.5261 3.16547 10.5231 3.17128C10.5223 3.17609 10.5172 3.17213 10.493 3.25126C10.4879 3.27687 10.4741 3.30474 10.4794 3.40236C10.4846 3.4511 10.4934 3.53003 10.5648 3.62976C10.6289 3.72962 10.799 3.81348 10.9059 3.80952C11.1215 3.80134 11.1476 3.74069 11.1844 3.72373C11.2147 3.70108 11.2263 3.68873 11.2361 3.67916C11.302 3.60517 11.2663 3.64327 11.2747 3.63423C11.2727 3.63684 11.2625 3.65174 11.2552 3.66263C11.2383 3.68782 11.222 3.71249 11.2039 3.7401C11.1693 3.79274 11.1342 3.84699 11.0997 3.90054C11.0298 4.00903 10.9609 4.11732 10.8919 4.22656C10.6716 4.57596 10.4568 4.92573 10.2588 5.26322C10.0604 5.60341 10.1251 5.55727 9.94294 5.86893C9.75162 6.19966 9.56814 6.51929 9.41471 6.82083C9.36757 6.914 9.32422 7.00797 9.30611 7.06307C9.29645 7.08906 9.29874 7.10175 9.29582 7.06914C9.29551 7.03694 9.25815 6.96706 9.24424 6.95992C9.21898 6.96278 9.50158 7.10534 9.70003 7.19418C9.76361 7.22375 9.36575 7.09178 9.72131 7.25029C9.76016 7.26766 9.80916 7.28909 9.86894 7.31478C10.133 7.42791 10.4134 7.55311 10.6972 7.66824C10.7672 7.69632 10.8393 7.72444 10.9005 7.74481C10.9157 7.74982 10.9292 7.7539 10.9369 7.75599C10.9244 7.76297 11.0124 7.74089 10.8168 7.76516C10.7753 7.77798 10.7138 7.79421 10.6391 7.87829C10.5492 7.9776 10.5451 8.13397 10.5671 8.1971C10.5929 8.28189 10.6132 8.29682 10.6255 8.31534C10.6424 8.33594 10.6454 8.33691 10.6456 8.3373C10.6457 8.33704 10.6342 8.32723 10.6238 8.31928C10.5227 8.24268 10.3733 8.14927 10.237 8.06523C9.77892 7.7854 9.28479 7.50622 8.8088 7.25199C8.49378 7.08457 8.44573 7.14231 7.80138 6.72207C7.66659 6.63454 7.88972 6.65568 7.07099 6.28827C6.93377 6.22601 5.56906 5.58926 4.95592 5.17609C4.79521 5.06748 4.39231 4.76254 4.01242 4.56791C3.96033 4.54153 4.1467 4.68911 3.83141 4.52118C3.76678 4.48674 3.69829 4.45015 3.63521 4.41647C3.40001 4.29077 3.16388 4.16414 2.92618 4.03648C2.80834 3.97317 2.68714 3.90808 2.56861 3.84402C2.53769 3.82729 2.50673 3.81051 2.477 3.79416C2.46719 3.78875 2.45887 3.78412 2.4512 3.77979C2.44365 3.77548 2.43807 3.77238 2.42639 3.7652C2.42268 3.76283 2.43039 3.76789 2.41465 3.75766C2.40823 3.75325 2.40143 3.74926 2.38147 3.73322C2.37082 3.724 2.35766 3.71496 2.32731 3.67985C2.31207 3.6606 2.29043 3.63708 2.26327 3.57473C2.23968 3.52023 2.19682 3.37321 2.28633 3.21564C2.37982 3.06039 2.51182 3.02947 2.5675 3.01871C2.62979 3.00865 2.65956 3.01307 2.68276 3.01501C2.72651 3.02043 2.74109 3.02597 2.75426 3.02951C2.7795 3.03732 2.78197 3.03901 2.78252 3.03906C2.79373 3.04332 2.7989 3.04563 2.8035 3.04761C2.81219 3.05142 2.81686 3.05365 2.82185 3.05601C2.84375 3.06647 2.85873 3.07405 2.87515 3.08224C2.93952 3.11452 2.99682 3.14366 3.0601 3.17579C3.54643 3.42316 4.03377 3.6706 4.52117 3.91371C4.63177 3.96887 4.74785 4.02659 4.86024 4.08221C5.16942 4.2351 4.73031 3.96606 5.1901 4.19477C6.45187 4.82205 8.0211 5.62269 9.24886 6.25045C9.70151 6.48194 9.3718 6.35569 9.40311 6.37552C9.90835 6.69572 10.2606 6.77912 10.4383 6.86212C11.2083 7.22253 11.8411 7.54928 12.492 7.87348C12.7852 8.01932 13.0759 8.16154 13.3932 8.30953C13.6748 8.44071 13.4929 8.31069 13.55 8.334C14.1457 8.57832 13.6824 8.43713 14.0474 8.61738C14.1021 8.64434 14.1585 8.67194 14.2161 8.70032C14.2305 8.70742 14.2455 8.71482 14.2614 8.72276C14.2707 8.72738 14.2765 8.73033 14.2874 8.73588C14.2932 8.73885 14.2988 8.74177 14.3052 8.74517C14.3076 8.74644 14.3136 8.7496 14.3228 8.75479C14.3274 8.7574 14.3327 8.76045 14.3401 8.76505C14.3438 8.76736 14.3481 8.77008 14.3534 8.77363C14.3561 8.77541 14.359 8.7774 14.3623 8.77972C14.3641 8.78599 14.3643 8.76319 14.4606 8.87446C14.4837 8.90868 14.5267 8.95801 14.5451 9.08482C14.5724 9.21006 14.478 9.42226 14.3705 9.4854C14.1622 9.60936 14.1217 9.55969 14.0827 9.56776C14.0478 9.56459 14.0572 9.56499 14.0466 9.56361C14.0335 9.56152 14.0247 9.55964 14.0175 9.55802C14.0033 9.55477 13.9954 9.55245 13.9886 9.55049C13.9739 9.5461 13.9722 9.54532 13.9678 9.54388C13.96 9.54123 13.9533 9.53882 13.9469 9.53646C13.9382 9.53323 13.9288 9.52966 13.9197 9.52616C13.9052 9.52051 13.8875 9.51358 13.8736 9.50807C13.7538 9.4606 13.6384 9.41507 13.5183 9.36921C12.6527 9.04396 11.7207 8.70256 10.8751 8.35962C10.4778 8.19844 10.9062 8.42414 10.5498 8.27796C10.0145 8.05735 9.47692 7.82369 8.94305 7.57779C7.42365 6.87335 5.78989 6.38547 4.2619 5.4793C3.87109 5.2058 4.13825 5.34521 4.0609 5.28074C3.97338 5.19892 3.86428 5.10574 3.75766 4.94778C3.70667 4.86781 3.64596 4.76152 3.63259 4.60044C3.61793 4.44226 3.68465 4.27289 3.76802 4.17181C4.07795 3.87763 4.20415 3.9573 4.3434 3.92076C4.4747 3.90839 4.5902 3.90867 4.68746 3.9102C4.88668 3.91456 5.03195 3.92771 5.10326 3.93589C6.06295 4.07179 6.39556 4.21772 7.18617 4.47163C7.67881 4.6377 8.17816 4.83197 8.67743 5.0596C10.0718 5.68916 11.5609 6.50595 12.7587 7.66759C13.1981 8.08821 13.6431 8.50332 14.0792 8.92978C14.297 9.14372 14.5129 9.35924 14.7232 9.59324C14.8284 9.71137 14.9329 9.83282 15.0354 9.97906C15.0878 10.056 15.1398 10.1328 15.1915 10.2558C15.2156 10.3195 15.2455 10.3897 15.2495 10.5247C15.2617 10.6503 15.172 10.8875 15.0236 10.982C14.7846 11.1314 14.6737 11.0723 14.6079 11.0722C14.5405 11.0609 14.4981 11.0475 14.4573 11.0345C14.3792 11.0088 14.3177 10.983 14.2583 10.9574C14.141 10.9064 14.0334 10.8541 13.9279 10.8018C13.7184 10.6976 13.5178 10.592 13.3194 10.4866C12.9268 10.2776 12.5443 10.0684 12.1794 9.86814C12.1599 9.85743 12.1402 9.84664 12.1204 9.83576C9.41858 8.3487 7.11688 7.03747 4.73119 5.77837C4.33393 5.57086 3.93879 5.3694 3.53307 5.17278C3.43196 5.12386 3.3318 5.07604 3.23011 5.02867C3.18069 5.00566 3.12827 4.98156 3.07992 4.95993C3.05518 4.94885 3.02851 4.93714 3.01471 4.93147C3.01422 4.93127 3.01453 4.93141 3.01701 4.93234C3.01828 4.93282 3.02009 4.9335 3.02317 4.93458C3.02472 4.93512 3.0266 4.93577 3.02904 4.93658C3.03027 4.93698 3.03164 4.93743 3.03321 4.93793C3.03891 4.93667 3.02376 4.94584 3.14024 4.95591C3.1775 4.9485 3.23822 4.98505 3.40829 4.86005C3.49197 4.79576 3.55487 4.64361 3.54346 4.54273C3.53634 4.44003 3.50383 4.3881 3.484 4.35422C3.40096 4.23967 3.38983 4.25566 3.37345 4.23898C3.31008 4.19964 3.33928 4.21913 3.33324 4.215C3.33412 4.21545 3.34033 4.21841 3.34539 4.22076C3.35415 4.22484 3.36886 4.23153 3.37933 4.23623C3.57835 4.32487 3.79014 4.41176 4.00472 4.49794C4.6014 4.73611 5.2234 4.97024 5.8618 5.20662C6.13631 5.30799 5.87592 5.16182 6.11287 5.2485C7.23771 5.65912 8.36099 6.06503 9.48157 6.44047C9.85498 6.56423 10.2354 6.68833 10.5984 6.78724C10.6848 6.81055 10.7885 6.83573 10.836 6.84232C10.8404 6.843 10.8435 6.84304 10.8354 6.84256C10.8159 6.84945 10.8476 6.81618 10.6669 6.87819C10.6052 6.90866 10.4965 6.96446 10.4341 7.13906C10.3759 7.30862 10.4541 7.46292 10.4618 7.4743C10.5038 7.55032 10.5324 7.56921 10.5392 7.57731C10.5613 7.59741 10.5622 7.59621 10.5621 7.59653C10.5557 7.59161 10.5132 7.56707 10.4783 7.54896C10.3234 7.46847 10.143 7.38771 9.96356 7.30882C8.82604 6.81769 7.64875 6.35877 6.46858 5.90567C6.21772 5.80985 6.56273 5.99023 6.15988 5.83823C5.59538 5.62592 4.92877 5.37248 4.29921 5.1364C4.006 5.02671 3.72395 4.92258 3.46638 4.83481C3.07839 4.70826 3.6084 4.82826 3.22444 4.70924C3.17216 4.69298 3.08687 4.67617 3.10559 4.6784C3.11242 4.67837 3.12162 4.67971 3.15472 4.67585C3.17464 4.67313 3.20232 4.66873 3.24283 4.65339C3.29615 4.63144 3.39645 4.5865 3.46787 4.44447C3.5753 4.09358 3.43547 4.06918 3.44063 4.0377C3.41951 4.00798 3.41231 4.00274 3.40773 3.99781C3.39345 3.98533 3.4177 4.00703 3.43604 4.01995C3.52488 4.08456 3.64922 4.15964 3.77076 4.23076C4.42836 4.61437 5.10717 5.00337 5.76886 5.3715C6.15862 5.58788 5.59414 5.21785 6.09968 5.50209C6.54009 5.74893 6.97643 5.99121 7.41602 6.2268C7.63586 6.34439 7.85228 6.4583 8.07196 6.56749C8.17815 6.62014 8.2902 6.67408 8.39171 6.71847C8.44169 6.7403 8.49165 6.76083 8.53057 6.77421C8.54554 6.77978 8.56731 6.78458 8.54789 6.78048C8.52722 6.78324 8.53947 6.75738 8.3727 6.79489C8.33382 6.77934 8.04343 6.9898 8.05246 7.18199C8.04078 7.3104 8.07234 7.37328 8.08652 7.40897C8.0797 7.39315 8.07145 7.37661 8.059 7.33377C8.07203 7.28388 7.94 7.23804 8.15783 6.88913C8.29876 6.71622 8.54841 6.70931 8.62821 6.73678C8.71301 6.75962 8.71485 6.76671 8.74337 6.77989C8.78698 6.80342 8.80654 6.81963 8.82263 6.83225C8.87744 6.87843 8.88774 6.89578 8.89774 6.90617C8.9102 6.92067 8.92054 6.93351 8.93144 6.94735C8.95456 6.97692 8.96342 6.9889 8.98124 7.01282C9.01282 7.05545 9.03972 7.09294 9.06787 7.13256C9.1222 7.20911 9.17607 7.28698 9.22908 7.36466C9.33571 7.52107 9.43626 7.67277 9.53813 7.82986C9.74037 8.14208 9.93648 8.45805 10.1247 8.7827C10.3119 9.10785 10.4943 9.43752 10.6538 9.80675C10.7295 10.0006 10.8163 10.1611 10.846 10.496C10.8457 10.578 10.8595 10.6998 10.7589 10.8862C10.6613 11.0889 10.3573 11.1935 10.2476 11.1803C9.97757 11.1708 9.89477 11.107 9.76779 11.0526C9.58593 10.9452 9.60635 10.9176 9.5768 10.8907C9.55912 10.8667 9.54911 10.8509 9.54071 10.8377C9.52363 10.8105 9.51213 10.7905 9.50074 10.7707C9.47843 10.7317 9.45913 10.6967 9.43959 10.6611C9.40146 10.5917 9.36358 10.522 9.32641 10.4539C9.25203 10.3174 9.17695 10.1804 9.10199 10.0443C8.95176 9.77172 8.8001 9.49941 8.64621 9.22471C8.23029 8.48295 7.80891 7.7376 7.38708 6.98615C7.2528 6.74706 7.21105 6.49282 6.90247 5.99766C6.85834 5.9724 6.83371 5.98954 6.80057 5.98663C6.42269 5.34132 6.04443 4.69506 5.66908 4.05138C5.52397 3.80228 5.38163 3.55739 5.23893 3.30395C5.16783 3.17702 5.09762 3.05153 5.02624 2.91046C5.00866 2.8754 4.99001 2.83733 4.97117 2.7948C4.95299 2.73138 4.92877 2.77067 4.90102 2.51887C4.90957 2.46568 4.87644 2.40321 5.00865 2.22159C5.16345 2.03949 5.38624 2.0609 5.43192 2.07246C5.56708 2.10441 5.57527 2.12622 5.60597 2.14097C5.6566 2.173 5.67488 2.18938 5.69747 2.20746C5.73903 2.24192 5.76869 2.26961 5.79899 2.298C6.91776 3.33695 8.04846 4.52906 8.69877 6.01712C9.04212 6.7891 9.37986 7.56283 9.70791 8.34243C9.87261 8.73435 10.0334 9.12373 10.1904 9.5219C10.2688 9.72122 10.3447 9.91825 10.4192 10.1251C10.4555 10.226 10.4926 10.3325 10.5268 10.4419C10.5438 10.4967 10.5602 10.5508 10.5772 10.6199C10.5845 10.6503 10.5936 10.6888 10.6007 10.7396C10.6042 10.7727 10.609 10.7852 10.6062 10.8619C10.5986 10.9021 10.6172 10.92 10.5477 11.0619C10.5104 11.1254 10.4482 11.2043 10.3236 11.252C10.2049 11.2958 10.0976 11.2767 10.0361 11.2556C9.73299 11.1028 9.793 11.05 9.73878 10.9972C9.70698 10.9451 9.68738 10.9068 9.66667 10.8661C9.62716 10.7875 9.59481 10.7169 9.56198 10.6452C9.49763 10.5039 9.43552 10.3646 9.37309 10.228C9.2478 9.95324 9.11976 9.68353 8.98581 9.41454C8.71788 8.87629 8.43018 8.34668 8.12702 7.82347C8.00493 7.61398 8.17354 7.99751 7.93822 7.59681C7.92989 7.58273 7.92152 7.56861 7.91311 7.55444C7.39039 6.67369 6.87214 5.79856 6.3644 4.92008C6.11042 4.48025 5.85722 4.0368 5.61064 3.58985C5.48658 3.36462 5.36413 3.13904 5.24312 2.90427C5.18408 2.78924 5.12376 2.66978 5.06509 2.54153C5.03491 2.47374 5.00727 2.41623 4.97263 2.31131C4.96553 2.28724 4.95231 2.24991 4.94358 2.18229C4.95198 2.14632 4.88682 2.07705 5.03145 1.8375C5.13949 1.65828 5.44977 1.63443 5.49214 1.66095C5.55576 1.67419 5.5943 1.69288 5.62438 1.70842C5.78291 1.80709 5.76754 1.82027 5.81368 1.86224C6.32779 2.42437 6.64494 3.0183 7.00079 3.61C7.11222 3.80172 7.04304 3.79095 7.22405 4.12656C7.27041 4.21299 7.33541 4.32597 7.42441 4.47215C7.50093 4.59497 8.12937 5.65624 8.30276 5.92391C8.32669 5.96011 8.24956 5.74503 8.44791 6.08929C9.143 7.29981 9.84574 8.54881 10.52 9.81095C10.6616 10.0773 10.798 10.3382 10.9338 10.6074C11.0017 10.7421 11.0681 10.876 11.1332 11.014C11.1662 11.0847 11.1974 11.1502 11.2335 11.2391C11.2378 11.25 11.2432 11.2634 11.2505 11.2844C11.255 11.299 11.257 11.2989 11.2683 11.348C11.2712 11.3701 11.272 11.3422 11.2772 11.4286C11.2714 11.47 11.2967 11.544 11.1792 11.6998C11.1201 11.7746 10.9951 11.8388 10.8953 11.841C10.795 11.8459 10.7328 11.8195 10.6931 11.8011C10.548 11.7151 10.5813 11.714 10.5624 11.7013C10.5528 11.6904 10.5465 11.6822 10.5411 11.6751C10.4918 11.6046 10.4966 11.6045 10.4812 11.5781C10.459 11.5368 10.4412 11.5007 10.4233 11.4637C10.2717 11.1416 10.1471 10.8408 10.0155 10.537C9.86942 10.1967 10.0678 10.5402 9.96394 10.2975C9.7329 9.75792 9.48795 9.20683 9.23683 8.65469C8.68691 7.44663 8.11223 6.22812 7.6172 5.10182C7.13426 4.00361 7.38826 4.37537 7.18448 3.76666C7.17787 3.74649 7.15248 3.68723 7.12115 3.61467C7.02245 3.38675 6.84952 2.99245 6.86672 2.9538C6.92149 2.82034 7.1772 3.09797 7.21742 2.91647C7.22268 2.89883 7.11321 2.66375 7.04461 2.50265C7.02735 2.4621 7.01223 2.4252 7.00337 2.40021C6.99872 2.38724 6.99552 2.37686 6.99544 2.37337C6.99565 2.37254 6.99579 2.36994 7.00038 2.38244C7.00056 2.40013 7.01137 2.35508 7.00959 2.48897C7.00223 2.51777 7.01766 2.50574 6.9727 2.59434C6.93094 2.68262 6.77556 2.7393 6.71092 2.721C6.62222 2.70577 6.60847 2.68466 6.59052 2.67523C6.56797 2.65918 6.56588 2.65602 6.56117 2.65224C6.55081 2.64336 6.55592 2.64937 6.55399 2.64874C6.55451 2.64976 6.55201 2.64843 6.56335 2.6594C6.57718 2.6666 6.55331 2.6695 6.65798 2.71461C6.67697 2.71797 6.75605 2.7573 6.88075 2.69182C7.00187 2.61568 7.00621 2.52298 7.01144 2.51341C7.02209 2.46112 7.01717 2.43573 7.01586 2.41996C6.99827 2.32911 7.00865 2.37638 7.01337 2.37504C7.0264 2.39356 7.05139 2.43533 7.08773 2.49783C7.1066 2.53251 7.42657 3.17806 7.51952 3.3301C7.5773 3.42511 7.53852 3.25709 7.61907 3.38307C7.628 3.39686 7.63851 3.41453 7.65109 3.4373C7.77403 3.65981 7.85784 3.92447 8.05361 4.29563C8.24903 4.66556 8.21597 4.47907 8.57342 5.23355ZM6.59555 8.37488C7.11935 7.98327 7.08788 7.80899 6.58207 8.29134C6.5572 8.31451 6.56839 8.39467 6.59555 8.37488ZM7.87077 4.44958C7.9619 3.58914 7.88886 2.99278 7.81568 3.60126C7.74376 4.20911 7.84345 4.7121 7.87077 4.44958ZM8.1533 13.423C8.02289 12.9016 7.99021 12.6196 7.93714 12.5926C7.90038 12.5675 7.84861 12.7956 8.01099 13.3656C8.03289 13.4351 8.17537 13.4871 8.1533 13.423ZM8.45022 6.43824C8.44821 6.42908 8.22517 5.94388 8.21806 5.93335C8.05533 5.69556 8.50119 6.66531 8.45022 6.43824ZM9.6184 5.02731C9.56583 5.33848 9.52392 6.24589 9.59173 5.85847C9.64685 5.54698 9.68458 4.63928 9.6184 5.02731ZM9.08224 6.38292C9.07423 6.39022 8.84802 6.69872 8.86256 6.70009C8.91088 6.70267 9.21423 6.26471 9.08224 6.38292ZM8.42396 11.184C8.45023 8.94307 8.79811 7.62317 8.60712 10.0348C8.58186 10.4715 8.60066 9.08846 8.55483 9.64461C8.49846 10.3201 8.52838 10.8487 8.55658 11.4268C8.58837 11.7128 8.52528 12.0665 8.73728 12.2977C8.79089 12.3416 8.64895 12.2924 8.56758 12.1039C8.48985 11.9126 8.46497 11.6287 8.44313 11.4299C8.43079 11.3065 8.42392 11.2112 8.42367 11.18C8.42376 11.1813 8.42386 11.1827 8.42396 11.184ZM6.99941 8.2668C7.01192 8.26183 7.40412 7.90504 7.4104 7.89303C7.58803 7.66507 6.80273 8.38227 6.99941 8.2668ZM9.34124 5.5386C9.31996 5.55935 8.62966 6.57864 8.6128 6.61578C8.32004 7.19132 9.71203 5.13094 9.34124 5.5386ZM7.20413 8.6179C6.72449 8.86091 6.13739 9.1097 5.69973 9.23913C5.66531 9.24942 5.63206 9.25888 5.60002 9.26748C5.63153 9.25468 5.66334 9.24176 5.69544 9.22872C6.19378 9.0263 6.7006 8.81983 7.20413 8.6179Z" fill="#00D492"/>
</svg>
